# xmcd
#
# Track frame offsets:
#	150
#	18530
#	33732
#	51902
#	70537
#	93212
#	108582
#	124822
#	143115
#	162442
#	181905
#	203135
#	225232
#	242822
#	259497
#	275067
#
# Disc length: 3898 seconds
#
# Revision: 1
# Processed by: cddbd v1.5.1PL0 Copyright (c) Steve Scherf et al.
# Submitted via: CDex 1.50Beta5
#
DISCID=e60f3810
DTITLE=山瀬まみ - コレクション(キングCD文庫)
DYEAR=1999
DGENRE=Pop
TTITLE0=メロンのためいき
TTITLE1=今夜はフェアリーテール
TTITLE2=セシリア・Bの片想い
TTITLE3=Heartbreak Cafe
TTITLE4=ガラスの部屋
TTITLE5=Strange Pink
TTITLE6=快傑ぶんぶんガール
TTITLE7=可愛いいひとよ
TTITLE8=スターライト・セレナーデ
TTITLE9=星空のエトランゼ
TTITLE10=サヨナラの仔猫
TTITLE11=素直になれなくて
TTITLE12=雨のマリオネット
TTITLE13=哀愁のバルセロナ
TTITLE14=月夜のカーニバル
TTITLE15=ゴォー!
EXTD=
EXTT0=
EXTT1=
EXTT2=
EXTT3=
EXTT4=
EXTT5=
EXTT6=
EXTT7=
EXTT8=
EXTT9=
EXTT10=
EXTT11=
EXTT12=
EXTT13=
EXTT14=
EXTT15=
PLAYORDER=
